<svg width="819" height="196" viewBox="0 0 819 196" fill="none" xmlns="http://www.w3.org/2000/svg">
<path d="M192 102.5L196.5 107L218 90.5L209.5 100.5L152.5 166.5L132 196L152.5 175.5L157.5 174L171 167.432L248 73H231L205.5 90.5L202 93L199 68L182.5 79L187 97L192 102.5Z" fill="white"/>
<path fill-rule="evenodd" clip-rule="evenodd" d="M304 73L278 74L274 75L304.5 34.5V27.5L317 0L210.5 128L232.5 142.5L307.5 81L304 73ZM238 118L264.5 83.5L268.5 83.9651L286 86L243.5 114.333L238 118Z" fill="white"/>
<path fill-rule="evenodd" clip-rule="evenodd" d="M317.5 72.5L310 81L306 88.5L283.5 120L293.5 131L348.788 118.5L353.5 106.779L312.5 112.5L309.5 113L314 104.5H316.5L359 88.5L371 74.8673L317.5 72.5ZM350.5 82.5L321.5 93.5L319 94L326 80.5L328.5 81L350.5 82.5Z" fill="white"/>
<path fill-rule="evenodd" clip-rule="evenodd" d="M378.5 68.5L343.5 139.5L357.5 155.5L372 115L439.5 139L453 124.5L410.5 106.5L466 87.5L458.5 77L378.5 68.5ZM380 94L385 84H436L387.5 97.5L380 94Z" fill="white"/>
<path fill-rule="evenodd" clip-rule="evenodd" d="M483 66.5L464.5 91L478.5 107.5L515.5 110H518L516.5 120.5L480.5 126L466 131L464.5 135L522.5 136.5L529.5 126L531 124L538 132.5L593 120.5L600 108L554 114L558 106L603.5 90.5L615.5 76.5L562.5 73.6858L531 116L529.5 114L521.5 100L486 91L488 83.5L519.5 79L526.5 74.5L536 71L539 66.5H483ZM596 83L562 96.5L563.328 94L570.5 80.5L592.5 82.6569L596 83Z" fill="white"/>
<path d="M588.5 135.5L607.5 134.5L621 113L624 108L631.5 136.5H646.5L667 98L679.5 71.5L664 73.0122L640 111L639 106L631 74.5H626.5V67L588.5 135.5Z" fill="white"/>
<path fill-rule="evenodd" clip-rule="evenodd" d="M751 136L804 114L806.5 101.5L763 117L764.5 113L766.5 107L808.5 83.5L819 66.5L764.5 73.5894L739.5 127L751 136ZM800.5 77L769 96.5L771.103 90L774.5 79.5L791 77.9135L800.5 77Z" fill="white"/>
<path d="M183 111L192 102.5L187 97H184L175 88.5H169.5L160.5 99L87 96L163 34.5L158.5 32.5L79 97L161 102L170 91L178.5 98.5H183L186 102.5L178.5 111.264L183 111Z" fill="white" fill-opacity="0.25"/>
<path d="M205.5 90.5L203.5 69L199 68L202 93L205.5 90.5Z" fill="white" fill-opacity="0.25"/>
<path d="M176 165L251.5 74L248 73L171 167.432L176 165Z" fill="white" fill-opacity="0.25"/>
<path d="M264.5 83.5L238 118L243.5 114.333L268.5 83.9651L264.5 83.5Z" fill="white" fill-opacity="0.25"/>
<path d="M319.5 2.5L317 0L304.5 27.5V34.5L274 75L278 74L308 37V27.5L319.5 2.5Z" fill="white" fill-opacity="0.25"/>
<path d="M306 73.5L304 73L307.5 81L232.5 142.5L236.5 141L306 88.5L310 81L306 73.5Z" fill="white" fill-opacity="0.25"/>
<path d="M321.5 93.5L328.5 81L326 80.5L319 94L321.5 93.5Z" fill="white" fill-opacity="0.25"/>
<path d="M361 90L374 75L371 74.8673L359 88.5L316.5 104.5L361 90Z" fill="white" fill-opacity="0.25"/>
<path d="M312.5 112.5L316.5 104.5H314L309.5 113L312.5 112.5Z" fill="white" fill-opacity="0.25"/>
<path d="M351 118L355.5 106.5L353.5 106.779L348.788 118.5L351 118Z" fill="white" fill-opacity="0.25"/>
<path d="M515.5 110L513.5 119.5L479.5 124L464.5 129.5L463.5 134.5L464.5 135L466 131L480.5 126L516.5 120.5L518 110H515.5Z" fill="white" fill-opacity="0.25"/>
<path d="M559 73.5L529.5 114L531 116L562.5 73.6858L559 73.5Z" fill="white" fill-opacity="0.25"/>
<path d="M529.5 126L534.5 131.5L538 132.5L531 124L529.5 126Z" fill="white" fill-opacity="0.25"/>
<path d="M562 96.5L596 83L592.5 82.6569L563.328 94L562 96.5Z" fill="white" fill-opacity="0.25"/>
<path d="M593 120.5L585 134.5L588.5 135.5L626.5 67L621 68.5L600 108L593 120.5Z" fill="white" fill-opacity="0.25"/>
<path d="M621 113L627.5 135.5L631.5 136.5L624 108L621 113Z" fill="white" fill-opacity="0.25"/>
<path d="M659 73.5L639 106L640 111L664 73.0122L659 73.5Z" fill="white" fill-opacity="0.25"/>
<path d="M667 98L679.5 110.5L684.5 110.632L670.5 95.5L686 69.6748L681 70L679.5 71.5L667 98Z" fill="white" fill-opacity="0.25"/>
<path fill-rule="evenodd" clip-rule="evenodd" d="M717.5 111.5L723 110.632L722.5 122L688 128.5L672 135L671 140L729 138L735.5 128.5L739.5 121L737 117L726 101L690 94.5L691.5 86L723 80L729 75.5L739.5 71L742.5 66L686 69.6748L670.5 95.5L684.5 110.632L717.5 111.5Z" fill="white"/>
<path d="M717.5 111.5L716.5 121L683.5 127L667 134L666 139L671 140L672 135L688 128.5L722.5 122L723 110.632L717.5 111.5Z" fill="white" fill-opacity="0.25"/>
<path d="M735.5 128.5L744 135L751 136L739.5 127L764.5 73.5894L757.5 74.5L737 117L739.5 121L735.5 128.5Z" fill="white" fill-opacity="0.25"/>
<path d="M806.5 101.5L798 101L764.5 113L763 117L806.5 101.5Z" fill="white" fill-opacity="0.25"/>
<path d="M769 96.5L800.5 77L791 77.9135L771.103 90L769 96.5Z" fill="white" fill-opacity="0.25"/>
<path d="M152 18L35 101.5L7.5 101L0 105.5L29.5 120L178.5 111.264L186 102.5L183 98.5H178.5L170 91L161 102L79 97L158.5 32.5L163 34.5L184 41.22L196 37.5052L152 18Z" fill="#FF0000"/>
</svg>
