<svg width="256" height="143" viewBox="0 0 256 143" fill="none" xmlns="http://www.w3.org/2000/svg">
<path d="M46.4393 98.1654C31.822 98.1654 20.4278 94.1894 12.2567 86.2375C4.08556 78.2855 0 67.1345 0 52.7845V0H32.1398V51.8248C32.1398 59.1369 33.4562 64.3468 36.0892 67.4544C38.7221 70.4707 42.2629 71.9788 46.7116 71.9788C51.2511 71.9788 54.792 70.4707 57.3341 67.4544C59.967 64.3468 61.2835 59.1369 61.2835 51.8248V0H92.8785V52.7845C92.8785 67.1345 88.793 78.2855 80.6218 86.2375C72.4507 94.1894 61.0565 98.1654 46.4393 98.1654Z" fill="#DDFF00"/>
<path d="M107.611 95.9718V0H139.751V95.9718H107.611Z" fill="#DDFF00"/>
<path d="M155.223 95.9718V0H202.207C212.829 0 222.181 1.96514 230.261 5.89541C238.341 9.73428 244.651 15.2184 249.191 22.3477C253.73 29.477 256 37.9774 256 47.8488C256 57.8116 253.73 66.4033 249.191 73.6241C244.651 80.7534 238.341 86.2832 230.261 90.2135C222.181 94.0523 212.829 95.9718 202.207 95.9718H155.223ZM187.363 70.7449H200.845C205.384 70.7449 209.334 69.8766 212.693 68.14C216.143 66.4033 218.821 63.8441 220.728 60.4622C222.635 56.989 223.588 52.7845 223.588 47.8488C223.588 43.0045 222.635 38.8914 220.728 35.5096C218.821 32.1277 216.143 29.5684 212.693 27.8318C209.334 26.0952 205.384 25.2269 200.845 25.2269H187.363V70.7449Z" fill="#DDFF00"/>
<path d="M15.038 142.667C12.8597 142.667 10.852 142.326 9.01493 141.643C7.20407 140.935 5.61629 139.937 4.25158 138.651C2.91312 137.365 1.86335 135.856 1.10226 134.124C0.367421 132.392 0 130.489 0 128.416C0 126.343 0.367421 124.44 1.10226 122.708C1.86335 120.976 2.92624 119.467 4.29095 118.181C5.65565 116.895 7.25656 115.911 9.09366 115.228C10.9308 114.52 12.9516 114.165 15.1561 114.165C17.5968 114.165 19.7882 114.572 21.7303 115.386C23.6986 116.199 25.352 117.38 26.6905 118.929L22.5964 122.708C21.5991 121.658 20.5099 120.884 19.3289 120.385C18.148 119.86 16.862 119.598 15.471 119.598C14.1326 119.598 12.9122 119.808 11.8099 120.228C10.7077 120.648 9.74977 121.251 8.93619 122.039C8.14886 122.826 7.53212 123.758 7.08597 124.834C6.66606 125.91 6.45611 127.104 6.45611 128.416C6.45611 129.702 6.66606 130.883 7.08597 131.959C7.53212 133.035 8.14886 133.98 8.93619 134.793C9.74977 135.581 10.6946 136.184 11.7706 136.604C12.8728 137.024 14.0801 137.234 15.3923 137.234C16.652 137.234 17.8724 137.037 19.0534 136.644C20.2606 136.224 21.4285 135.528 22.557 134.557L26.1787 139.163C24.6828 140.292 22.9375 141.158 20.943 141.761C18.9747 142.365 17.0063 142.667 15.038 142.667ZM20.3525 138.336V127.983H26.1787V139.163L20.3525 138.336Z" fill="white"/>
<path d="M28.481 142.194L40.7634 114.638H47.062L59.3837 142.194H52.6914L42.6136 117.866H45.1331L35.0159 142.194H28.481ZM34.6222 136.289L36.315 131.447H50.4869L52.219 136.289H34.6222Z" fill="white"/>
<path d="M62.2427 142.194V114.638H67.5178L79.2491 134.085H76.454L87.9884 114.638H93.2242L93.3029 142.194H87.3192L87.2798 123.81H88.3821L79.1703 139.281H76.2966L66.888 123.81H68.2264V142.194H62.2427Z" fill="white"/>
<path d="M105.706 125.739H118.973V130.699H105.706V125.739ZM106.179 137.077H121.177V142.194H99.8408V114.638H120.666V119.755H106.179V137.077Z" fill="white"/>
<path d="M135.306 142.667C133.102 142.667 130.989 142.378 128.968 141.801C126.947 141.197 125.32 140.423 124.087 139.478L126.252 134.675C127.433 135.515 128.824 136.211 130.425 136.762C132.052 137.287 133.692 137.549 135.345 137.549C136.605 137.549 137.616 137.431 138.377 137.195C139.164 136.932 139.741 136.578 140.109 136.132C140.476 135.686 140.66 135.174 140.66 134.597C140.66 133.862 140.371 133.284 139.794 132.865C139.216 132.418 138.455 132.064 137.511 131.802C136.566 131.513 135.516 131.25 134.361 131.014C133.233 130.752 132.091 130.437 130.936 130.069C129.808 129.702 128.771 129.23 127.826 128.652C126.882 128.075 126.107 127.314 125.504 126.369C124.926 125.424 124.638 124.217 124.638 122.747C124.638 121.173 125.058 119.742 125.897 118.456C126.763 117.144 128.049 116.107 129.755 115.346C131.487 114.559 133.653 114.165 136.251 114.165C137.983 114.165 139.689 114.375 141.368 114.795C143.048 115.189 144.531 115.793 145.817 116.606L143.849 121.448C142.563 120.713 141.277 120.175 139.991 119.834C138.705 119.467 137.445 119.283 136.211 119.283C134.978 119.283 133.968 119.427 133.18 119.716C132.393 120.005 131.829 120.385 131.487 120.858C131.146 121.304 130.976 121.829 130.976 122.432C130.976 123.141 131.264 123.718 131.842 124.165C132.419 124.584 133.18 124.926 134.125 125.188C135.07 125.45 136.106 125.713 137.235 125.975C138.39 126.238 139.531 126.54 140.66 126.881C141.815 127.222 142.864 127.681 143.809 128.259C144.754 128.836 145.515 129.597 146.092 130.542C146.696 131.487 146.998 132.681 146.998 134.124C146.998 135.673 146.565 137.09 145.699 138.376C144.833 139.662 143.534 140.698 141.801 141.486C140.096 142.273 137.93 142.667 135.306 142.667Z" fill="white"/>
<path d="M157.221 125.739H170.488V130.699H157.221V125.739ZM157.694 137.077H172.692V142.194H151.356V114.638H172.18V119.755H157.694V137.077Z" fill="white"/>
<path d="M177.766 142.194V114.638H183.042L199.3 134.479H196.741V114.638H203.04V142.194H197.804L181.506 122.354H184.065V142.194H177.766Z" fill="white"/>
<path d="M218.614 142.667C216.409 142.667 214.297 142.378 212.276 141.801C210.255 141.197 208.628 140.423 207.394 139.478L209.56 134.675C210.741 135.515 212.131 136.211 213.732 136.762C215.36 137.287 217 137.549 218.653 137.549C219.913 137.549 220.923 137.431 221.684 137.195C222.472 136.932 223.049 136.578 223.417 136.132C223.784 135.686 223.968 135.174 223.968 134.597C223.968 133.862 223.679 133.284 223.102 132.865C222.524 132.418 221.763 132.064 220.818 131.802C219.874 131.513 218.824 131.25 217.669 131.014C216.541 130.752 215.399 130.437 214.244 130.069C213.116 129.702 212.079 129.23 211.134 128.652C210.189 128.075 209.415 127.314 208.812 126.369C208.234 125.424 207.946 124.217 207.946 122.747C207.946 121.173 208.365 119.742 209.205 118.456C210.071 117.144 211.357 116.107 213.063 115.346C214.795 114.559 216.96 114.165 219.559 114.165C221.291 114.165 222.997 114.375 224.676 114.795C226.356 115.189 227.839 115.793 229.125 116.606L227.156 121.448C225.87 120.713 224.584 120.175 223.298 119.834C222.012 119.467 220.753 119.283 219.519 119.283C218.286 119.283 217.275 119.427 216.488 119.716C215.701 120.005 215.136 120.385 214.795 120.858C214.454 121.304 214.284 121.829 214.284 122.432C214.284 123.141 214.572 123.718 215.15 124.165C215.727 124.584 216.488 124.926 217.433 125.188C218.378 125.45 219.414 125.713 220.543 125.975C221.698 126.238 222.839 126.54 223.968 126.881C225.122 127.222 226.172 127.681 227.117 128.259C228.062 128.836 228.823 129.597 229.4 130.542C230.004 131.487 230.306 132.681 230.306 134.124C230.306 135.673 229.873 137.09 229.007 138.376C228.141 139.662 226.841 140.698 225.109 141.486C223.403 142.273 221.238 142.667 218.614 142.667Z" fill="white"/>
<path d="M240.529 125.739H253.795V130.699H240.529V125.739ZM241.001 137.077H256V142.194H234.663V114.638H255.488V119.755H241.001V137.077Z" fill="white"/>
</svg>
